<svg id="Ebene_1" data-name="Ebene 1" xmlns="http://www.w3.org/2000/svg" viewBox="0 0 815.82 168.06"><defs><style>.cls-1{fill:#fff;}.cls-2{fill:#003d8f;}</style></defs><g id="_1_1" data-name="1&amp;1"><path class="cls-1" d="M760.53,112.72H873.92V226.1H760.53Z" transform="translate(-58.09 -58.09)"/><path class="cls-2" d="M816.09,188.14a10.61,10.61,0,0,0,7.21-2.71l-9.78-13c-4.58,3-6.42,6-6.33,8.77.13,4.24,3.68,6.95,8.9,6.95Zm4-33.93c0-2.3-1.62-3.78-4.19-3.78a3.93,3.93,0,0,0-4.25,3.86c0,2.15.64,3.32,3.61,7.14,3.52-2.54,4.83-4.91,4.83-7.22Z" transform="translate(-58.09 -58.09)"/><path class="cls-2" d="M762.39,224.24H872.05V114.58H762.39Zm76.51-80.61h18.56v51.62H847.15V151.9H838.9v-8.27Zm-30.51,22.18c-4.65-6-5.61-8-5.61-11.76,0-6.36,5.44-11,13.15-11,7.14,0,12.2,4.76,12.2,11.28,0,4.77-2,8.31-8,13.32l8.92,12.1c.75-.67,1.39-4.78,1.26-8.12,0-.4-.11-1.56-.19-2.83h8.29c0,1.11.11,2.72.11,3.11,0,6.53-1,10.65-4.15,14.62l6.59,8.75h-10.2l-2.3-3.1c-3.76,3-7.06,4.14-12.39,4.1-10.44-.05-17.63-5.35-18.3-14.79-.41-5.65,3.36-11.46,10.6-15.64Zm-35.52-22.18h18.57v51.62H781.13V151.9h-8.26v-8.27Z" transform="translate(-58.09 -58.09)"/></g><g id="by"><path class="cls-2" d="M679.52,196.08a14.17,14.17,0,0,1-4.7-.75,14.35,14.35,0,0,1-3.23-1.5c-.72-.51-1.64-1.21-2.74-2.11v3.46h-5.26V143.55l5.26-2.62v19.61a14,14,0,0,1,4.66-3.38,13.06,13.06,0,0,1,5.56-1.28,14.06,14.06,0,0,1,11.57,5.33q4.29,5.34,4.28,14.73,0,9.69-4,14.92T679.52,196.08Zm-.83-4.73a9,9,0,0,0,8-4.06q2.71-4.06,2.71-11.35,0-7.44-2.71-11.38a9.11,9.11,0,0,0-8-3.95,10.23,10.23,0,0,0-5.9,1.84,13.12,13.12,0,0,0-3.94,4v18.86a12.24,12.24,0,0,0,4.28,4.36,10.5,10.5,0,0,0,5.56,1.66Zm29.83,18.41L714.23,194l-14.05-37.2h5.34l9.69,27.28c.15.5.38,1.2.68,2.1l.6,1.81,1.35-3.91,9.85-27.28h5.63l-19.61,53Z" transform="translate(-58.09 -58.09)"/></g><g id="IONOS"><path class="cls-2" d="M590.88,226.16a42.38,42.38,0,0,1-8.49-.86,44,44,0,0,1-29-20.74l-.16-.29a13,13,0,0,1,4.8-17.19,12.58,12.58,0,0,1,6.46-1.79,12.8,12.8,0,0,1,11.13,6.53c.13.23.28.48.43.72l1.35,1.84,1.82,1.84a17.72,17.72,0,0,0,8.3,4A18.19,18.19,0,0,0,601.78,197,17.28,17.28,0,0,0,609,184a17.86,17.86,0,0,0-5-13.89s-38.41-39.89-40.14-41.75a46.81,46.81,0,0,1-4.63-5.5c-5.42-7.68-7.11-16.74-6.28-25.7a41.67,41.67,0,0,1,5.41-17.77s1.76-3,2.28-3.73a48.78,48.78,0,0,1,8.79-9,45.46,45.46,0,0,1,7.37-4.42,42,42,0,0,1,54.8,16.91,12.44,12.44,0,0,1,1.32,9.65,12.65,12.65,0,0,1-6.07,7.84,12.11,12.11,0,0,1-6.22,1.7,12.68,12.68,0,0,1-11-6.5A16.71,16.71,0,0,0,598.38,84a17.36,17.36,0,0,0-13.56,3,16.57,16.57,0,0,0-6.41,12A16.8,16.8,0,0,0,583,112l39.27,40.5a43.5,43.5,0,0,1-31.38,73.68m-124.3,0a42.29,42.29,0,0,1-42.24-42.25V100.34a42.24,42.24,0,1,1,84.48,0v83.55a42.29,42.29,0,0,1-42.24,42.25m0-142.53a16.75,16.75,0,0,0-16.74,16.73v83.55a16.56,16.56,0,0,0,16.74,16.74,16.76,16.76,0,0,0,16.74-16.74V100.34a17,17,0,0,0-16.74-16.73m-164.2,60.67v69.1a12.76,12.76,0,0,1-25.51,0v-122l25.51,52.93Zm69.18,48.65V70.85a12.76,12.76,0,1,0-25.51,0V140l25.51,52.93ZM301.33,65.33l-.12-.24a13,13,0,0,0-11.54-6.92,11.91,11.91,0,0,0-2.57.27A12.49,12.49,0,0,0,277,70.85v2.91l70.13,145.38a13.15,13.15,0,0,0,11.33,7,11.14,11.14,0,0,0,2.91-.37,12.51,12.51,0,0,0,9.94-12.38v-2.75l-70-145.3M181.43,226.14a42.3,42.3,0,0,1-42.24-42.25V100.34a42.24,42.24,0,0,1,84.48,0v83.55a42.29,42.29,0,0,1-42.24,42.25m0-142.53a16.73,16.73,0,0,0-16.73,16.73v83.55a16.74,16.74,0,0,0,33.47,0V100.34a17,17,0,0,0-16.74-16.73M72,226.07a13.81,13.81,0,0,1-13.87-14v-140l0-.27A13.83,13.83,0,0,1,72.06,58.1,13.69,13.69,0,0,1,85.41,68.32a6.86,6.86,0,0,1,.24,1l.09.6a14.13,14.13,0,0,1,.18,2.22s0,138.3,0,139.89a13.85,13.85,0,0,1-14,14" transform="translate(-58.09 -58.09)"/></g></svg>