<?xml version="1.0" encoding="utf-8"?>
<!-- Generator: Adobe Illustrator 23.0.1, SVG Export Plug-In . SVG Version: 6.00 Build 0)  -->
<svg version="1.1" id="Layer_1" xmlns="http://www.w3.org/2000/svg" xmlns:xlink="http://www.w3.org/1999/xlink" x="0px" y="0px"
	 viewBox="0 0 1164.4 267.1" style="enable-background:new 0 0 1164.4 267.1;" xml:space="preserve">
<style type="text/css">
	.st0{fill:#FBBF4B;}
	.st1{fill:#825E27;}
	.st2{fill:#113959;}
	.st3{fill:#2557A7;}
	.st4{fill:#FEFEFE;}
</style>
<path class="st0" d="M240.6,53.7v156H292v-52.3h27.4v52.4h51.8v-34.5c10.6,22.7,27.8,35.3,52.4,37.2c24.2,1.9,44-6.7,58.1-27.5
	c3.4,8.7,9.9,15.9,18.2,20.1c17.6,9.1,36.2,9.6,54.9,5.3c16.8-3.9,30.1-12.5,34.5-30.7c0-0.1,0.5-0.1,0.7-0.2
	c3.3,14.7,8.1,22.2,18.1,27.2c15.7,7.9,31.6,4.8,47.9,0.4v-26.9c25.7,34.7,57.4,41,94.9,23.6c0.6,2,1.2,4,1.7,5.8h37v-14.4
	c21.5,20.6,37,22.8,65.5,9.3l3.4,5.5h49.3c-0.2-4.8,1.6-9.5-1.1-13.2c-5.6-7.7-6-16.2-5.8-25.2c0.3-11.6,0.1-23.3,0.1-35.1
	c1.7-0.3,2.9-0.9,4.4,0.5c0,11.5-0.1,23.3,0,35.2c0.3,20.8,10.9,34.6,29.6,38.3c12.4,2.4,24.4,0.2,36.8-3.4v-17.8
	c14.9,18.5,33.7,24.9,55.7,23.2c22.1-1.7,38.4-12.9,50-31.7v28.8h48.8v-5.8c0-14.8-0.1-29.7,0-44.5c0.1-10.4,6.6-16.7,17-16.8
	c3.8,0,7.6,0.8,11.2,2.1c3.2,1.2,6.4,2.3,9.9,3.5v-57c-13.9-5-27.2-4.9-39.5,3.7c-1.2-1.5,0.1-3.3-1.4-4.3h-46.2v31.1
	c-11.4-20.7-27.5-32.2-49.9-33.7c-21.8-1.4-40.7,4.8-55.7,23.4V90.1h-17.5V61.8h-48.9v28.5h-14.5v12.2c-4.4-3.7-8.1-6.5-12.3-8.4
	c-20.2-8.8-40.8-8.9-61.3-1.4c-12.6,4.6-21.2,13.9-24.2,27.2c-2.2,9.4-4.4,19.1-1.7,28.9c0.2,0.6-0.5,1.6-1.4,1.8
	c-1.3-14.1,1.6-28.4-2.3-42.4c-1.6-5.8-2.1-11.8-4.5-17.4c-11.6-26.4-32.4-39.2-60.7-40.4c-20.4-0.9-38.8,4.6-54.1,18.9
	c-6.4,6-11.1,13.2-15.2,20.6h-14.6V61.7h-49.1v28.5h-13.8c-0.2,3.2-0.4,5.9-0.6,9.3c-5.7-4.7-12.5-8-19.7-9.7
	c-10.2-2.4-20.8-3-31.3-1.6c-18.1,2.2-34.4,7.9-42.2,27.2c-14.1-21.3-34-29.7-58.5-27.5c-24.6,2.2-42.1,14.6-52.4,37.5V53.8h-51.6
	v44.8h-27.4V53.7H240.6z"/>
<g>
	<title>hostgator_l</title>
	<path class="st1" d="M240.6,53.7h51.2v44.9h27.4V53.8h51.6v71.7c10.3-22.9,27.8-35.4,52.4-37.5c24.5-2.2,44.4,6.2,58.5,27.5
		c7.9-19.3,24.1-25.1,42.2-27.2c10.4-1.4,21-0.9,31.3,1.6c7.2,1.7,13.9,5,19.7,9.7c0.2-3.5,0.4-6.1,0.6-9.3h13.8V61.7h49.1V90H653
		c4.1-7.4,8.8-14.6,15.2-20.6c15.3-14.3,33.6-19.7,54.1-18.9c28.3,1.2,49.1,13.9,60.7,40.4c2.4,5.5,2.9,11.6,4.5,17.4
		c3.8,14,0.9,28.3,2.3,42.4c0.9-0.3,1.6-1.2,1.4-1.8c-2.7-9.8-0.5-19.5,1.7-28.9c3-13.3,11.6-22.6,24.2-27.2
		c20.5-7.5,41-7.4,61.3,1.4c4.3,1.9,8,4.6,12.3,8.4V90.2h14.5V61.8h48.9v28.3h17.5v21.2c15.1-18.6,33.9-24.8,55.7-23.4
		c22.4,1.5,38.5,13,49.9,33.7V90.5h46.2c1.5,0.9,0.2,2.8,1.4,4.3c12.3-8.6,25.6-8.7,39.5-3.7v57.1c-3.5-1.2-6.7-2.3-9.9-3.5
		c-3.6-1.4-7.4-2.1-11.2-2.1c-10.3,0.1-16.9,6.5-17,16.8c-0.1,14.8,0,29.7,0,44.5v5.8h-48.8v-28.8c-11.6,18.8-27.9,30-50,31.7
		c-21.9,1.7-40.8-4.7-55.7-23.2v17.8c-12.4,3.6-24.4,5.8-36.8,3.4c-18.7-3.7-29.3-17.5-29.6-38.3c-0.2-11.8,0-23.6,0-35.2
		c-1.5-1.4-2.7-0.8-4.4-0.5c0,11.8,0.2,23.4-0.1,35.1c-0.2,9,0.2,17.5,5.8,25.2c2.7,3.7,0.9,8.4,1.1,13.2h-49.3l-3.4-5.5
		c-28.5,13.5-44,11.3-65.5-9.3v14.4h-37c-0.5-1.8-1.1-3.8-1.7-5.8c-37.4,17.4-69.2,11.1-94.9-23.6v26.9c-16.3,4.3-32.2,7.5-47.9-0.4
		c-10-5-14.8-12.5-18.1-27.2c-0.2,0.1-0.7,0.1-0.7,0.2c-4.5,18.2-17.7,26.7-34.5,30.7c-18.8,4.4-37.4,3.9-54.9-5.3
		c-8.3-4.2-14.8-11.3-18.2-20.1c-14.1,20.8-33.9,29.4-58.1,27.5c-24.6-1.9-41.8-14.5-52.4-37.2v34.5h-51.8v-52.4H292v52.3h-51.4
		V53.7z M1082.7,170.1c0,0.3,0,0.5,0,0.8v21.9h37.6V166c0.1-5.5,0.1-11,0.2-16.5c0.1-18.9,13.1-25.9,29.5-23c3,0.5,5.9,1.5,9.1,2.3
		V95.4c-7.4-2.6-14.7-3-22.1-0.6c-7.2,2.4-12.5,7.5-18.6,13.5v-12h-35.6V166C1082.8,167.4,1082.8,168.7,1082.7,170.1L1082.7,170.1z
		 M471.6,177.4c17.8-18.3,17.2-56.1-9.2-74.5c-13-9.1-27.5-11.4-42.8-8.9c-19.2,3.1-34,12.6-41.2,31.3c-7,18-5.2,35.2,7,50.7
		c13.5,17.1,31.8,21.9,52.5,19.5C451.4,194,463.1,188.5,471.6,177.4L471.6,177.4z M911.4,162.1c-0.2,4.8,0.7,9.7,2.7,14.1
		c1.1,4.4,3.7,8.3,7.3,10.9c13.9,11,29.1,8.4,44.4,4.7V166c-4.8,1.6-10,1.3-14.5-0.9c-2.3-3-2.9-6.6-2.9-10.3c0-7.5,0-15,0.1-22.4
		c0.1-4.1-0.6-8.2,0.5-12.3c5.7-1,11.4,0.5,16.8-0.9V95.7h-17.4V67.3h-37.6V96h-13.6l-0.2-0.3V96c-1.2,7.6-0.3,15.2-0.5,22.6
		c4.8,1.6,9.4,0.4,14.7,1.8c0,13.4,0.1,26.9,0.1,40.3L911.4,162.1z M978.4,177c0.4,0.7,0.9,1.4,1.5,2c16,16.7,35.6,20,57.2,15.1
		c11.3-2.5,20.9-8.3,27.7-18c16.8-18.6,14.3-52.1-5-69c-15.9-13.9-34.5-16.9-54.2-11.9C963.5,105.9,957.1,154,978.4,177L978.4,177z
		 M793.5,176c1.1,4.9,4,9.2,8,12.2c13.4,10.3,34.1,10.7,49.2,1c2.4-1.6,4.8-3.2,7.2-4.8c1.9,2.9,1.6,6.3,3.9,8.5h36
		c-4-9-1.8-18-2.6-26.9c0-12,0.3-24-0.1-36c-0.4-13.8-5.8-25.1-19-30.9c-19-8.3-38.6-8.5-57.8-0.9c-14.3,5.7-20.7,17.4-21.6,32.7h34
		c2.2-11.7,12.1-16.8,22.6-11.7c2.6,1.2,4.4,3.2,4.6,6.1c0.2,2.5-1.6,4.1-3.7,5.4c-3.3,2-7,2.6-10.7,3.3c-10.9,2-22.1,3.2-32.6,6.8
		C795.6,146.1,788.6,160.4,793.5,176L793.5,176z M632.6,152v-32.4h17.5v-24h-17.5V67H595v29h-14.5v21.2c-4.5-12.5-14-18.7-25.8-21.8
		c-4.5-1.1-9.1-1.8-13.8-2c-14.3-0.8-28.3,0.6-40.9,8.3c-13.1,8-17.5,23-10.1,36.3c4.5,8.1,12.6,11.6,21,14
		c8.8,2.4,17.8,4.1,26.7,6.2c3.5,0.9,7.1,2,8.8,6c-0.5,4.9-3.9,6.5-8.2,7.1c-9.6,1.2-12.9-0.9-18.1-10.9h-35.6
		c0.5,5.8,1.5,11.1,4.7,15.8c4,8.4,11.4,12.9,19.6,15.8c16.6,5.9,34.7,5.9,51.3-0.1c8.4-2.9,16-7.5,20.3-15.9
		c8.6-15.9,2.8-33-13.5-40.2c-5.4-2.4-11-3.6-16.7-4.9c-8.5-2-17.4-2.3-25.2-6.4c-0.9-2.2-1.2-4.1,0-5.9c8.5-5.8,17-3.4,21.3,6.1
		h33.5c1.5-1.5-0.1-3.6,1.5-4.6h14.1c0,2.1,0,3.8,0,5.6c0,11.5,0.1,23,0,34.4c-0.2,5.5,0.8,10.9,3,16c1.1,4.2,3.5,7.9,7,10.6
		c13.9,11.5,29.3,8.7,44.8,5.2v-25.8c-1.7,0.3-3,0.6-4.3,0.8c-8.5,1-12.3-2.4-12.6-11C633.2,154.6,633.4,153.2,632.6,152z
		 M669.3,176.1c8,9.7,19.1,16.4,31.4,18.9c19.5,4.1,37.5,0.6,53.8-12.4c1,3.9,1.8,7,2.7,10.3H784c0.1-5.8,0.6-11.4-0.3-17
		c0.2-1.6,0.3-3.3,0.4-5c-0.6-12.3-0.3-24.6,0-36.9c0.1-4.6-0.6-13.7-0.6-13.7h-55.6v29.5c6.7,0,10.8,0,16.7,0
		c-3.7,8.7-10.3,13.1-18.9,14c-9.5,1-18.3-0.8-24.5-9.1c-9.6-12.7-10.8-40.1-2.5-53.9c8.1-13.3,27.4-15.1,37.8-3.5
		c2.3,2.5,3.2,5.8,4.9,8.4h40c-0.7-5.2-2.2-10.2-4.3-14.9c-9.9-20.9-26.7-32.2-49.5-34.4c-26.2-2.5-48.5,5-64.1,27.3
		c-11.1,15.8-13.3,33.8-11.5,52.5C653.4,151.3,658.5,165,669.3,176.1L669.3,176.1z M324.8,166v26.8h40.3V166c0.1-35,0.1-70,0.2-105
		c-0.1-0.6-0.2-1.1-0.5-1.7h-40.4v45h-38.1v-45h-39.9c-0.1,1.5-0.3,2.6-0.3,3.7c-0.1,24.7-0.6,49.3-0.2,74c0.2,10.3-1,20.6,0.2,30.9
		c-1,8.2-0.4,16.4-0.3,24.8h40.5v-52.3h38.5V166z M733,114c-6.6-10.4-22.5-9.8-29,0.3c-6.8,10.5-6.1,27.3,1.6,37.2
		c4,5.1,9.3,7.1,16.3,6.6V114H733z M638.5,136.3c0.2,8.4-0.8,16.4,0.6,24.3c3.1,1,6.5,1,9.5-0.1c-2.5-8.1-2.3-16.2-3.4-24.2H638.5z
		 M961.1,160.7v-24.2h-6.7c0,8.2-0.7,16.2,0.4,23.8C957.2,161.4,959,161.7,961.1,160.7L961.1,160.7z M586.7,136.1
		c-0.6,2.6,0.6,5.4-2.6,6.2c2.1,3.3,3.7,6.9,4.8,10.7C590.2,141.8,589.8,137.7,586.7,136.1z"/>
	<path class="st2" d="M178.6,92.9c1.3,2.1,2.7,4.1,3.8,6.2c2.4,4.1,2.4,9.1,0.2,13.3c3.4,3.7,6.7,7.6,10.3,11.2
		c3.7,3.7,4.1,7.3,1.7,12.1c-5.4,10.9-13,20.1-21.9,28.8c2.2,8.2,2.1,16.3-4.8,23c-3.1,1.5-6.7,0.9-10.4,1c-8,14.6-6.2,30-3.3,45.5
		c0.4,2,1.8,3,3.4,4.1c6.2,4.1,8.7,9.8,7.8,17c-6.5,7.1-29.1,4.2-35-0.9c-3.4-2.9-4.7-6.7-4.6-11.1c0-5.2,0-10.3,0-15.7
		c-3.7,1.2-7.6,2.4-11.4,3.6c-4,1.2-8.2,1-12.6,1.4c-0.8,4.7-0.7,9.6,0.2,14.3c1.4,7.5,0.1,10.7-6.4,14.6
		c-5.7,3.5-11.9,5.8-18.8,5.7c-8-0.1-12.3-4.5-11.9-12.6c0.3-6.8,3.1-11.3,10-15.7c1.1-2.6,1.8-5.3,1.9-8.1c0.3-2.6,0.4-5.3,0.6-8
		c-13.4-10.9-22.8-25.4-35.1-37.1c-3.8-3.6-7.6-7-12.3-9.3c-7.3-3.6-14.5-4.5-21.6,0.6c-2,1.4-4.1,3.1-6.9,1.9
		c-2.4-1.8-1.7-4.1-0.8-6.3c2.5-6.3,7.4-11.2,13.6-13.9c1.3-0.6,3-0.6,4.1-2.2c0.9-3.2-1.3-6.7,0.5-11.1c9.5-2.5,12.9,7.4,19.5,11.4
		c1.5-3.3,0.8-6.5,2.6-9c2.7-2.1,4.9-1.2,6.9,1.1c2.7,3.3,5.2,6.9,7.2,10.8c0.9,1.5,1.2,3.6,3.9,3.8c2.6-2.8,0.6-7.4,3.7-10.2
		c-5.2-4.8-9.9-10.2-14-16c-2.4-3.5-2.5-6.7-0.2-10.1c3.5-5.2,6.9-10.6,10.2-15.5c-3.9-10.9,5.9-14.2,10.5-20.7
		c-1.6-1.9-4.3-1.6-6.5-2.3c-5.7-1.9-7.2-5.8-3.9-10.8c3.7-5.7,9.1-9.6,14.5-13.6c-2.2-4.8-8-5-10.7-8.9c-1.4-4,1-6.6,4-8.7
		c3.8-2.7,7.7-5.3,11.6-7.7C82,36.5,86,34.4,90,32.3c2-5.5,3.9-11,6-16.4c1.1-2.8,2.5-5.4,4.2-7.9c7.3-10.6,18.1-10.8,26-0.7
		c1,1.3,1.9,2.7,2.9,4.2c2.8,0.8,5.7,1.5,8.5,2.5s5.6,2,8.3,3c7.9-5.3,13-3.6,16.4,5.4c3.2,8.6,3.5,17.5,3.4,26.7
		c3,1.6,6.5,2.6,8.8,5.6c0.8-0.2,1.6-0.4,2.4-0.5c5.8-1,11.4-1.1,15.1,4.7c3.3,5.2,3.1,13.6-0.9,18.4c-2,2.4-3.3,5.3-4,8.3
		c-1.5,6.3-3.9,8-8.9,7.3c-1.8-2.7-0.7-6.2-2.7-9c-3.3,0.2-6.8-0.1-10.8,1.2C169.1,88.4,173.7,91,178.6,92.9z M116.8,26.7l0.8,2.5
		c0.8-2.3,0.9-3,0-3.5c-1-2.5-2.9-4.1-5.4-6c-0.6,2.7-1.1,4.9-1.5,7C113,27.5,114.9,25.5,116.8,26.7z M104.5,90.9h-0.3H104.5
		c-0.3,7.6,4.6,13.4,7.3,20.3c4.3-2.6,8.9-2.8,13.6-4.6C118.3,101.8,111.2,96.5,104.5,90.9z M146.4,88c-1.6-0.7-3.1-1.4-4.7-2.2
		l-0.1-0.2c-8.7-6.4-18.5-9.8-29.1-11.8c-0.1,2.6,1.5,3.4,2.6,4.6c10.9,12,25.1,19.2,39.3,26c6.6,3.1,13.5,1.9,20.4-1
		c-1.3-7.5-7.8-10.4-11.7-15.5c-3.3,3.7-3.9,9.3-9.6,9.8c-4.5-2.8-0.1-8.4-3.9-11.4C148.2,85.7,146.6,85.5,146.4,88L146.4,88z
		 M147.5,247.9c3.9,0.6,4,4.4,5.8,7c1.3,0,2.6,0.5,3.8-0.6c0.6-1.7,0.2-3.2-0.4-4.8c-0.5-1.4-2.3-2.3-1.5-4.4
		c3.8,1.8,4.4,5.9,7.3,9.4c-0.2-5.7-1-10-5.3-12.6c-3.8-2.2-6.3-6-6.8-10.4c-1.3-7.9-2-15.9-2-24c-5.6,7.8-11.9,13-19,17.8
		c0,6.7,0,13.4,0,20c0,2.9,1.5,5.6,4.1,7c4.8,2.9,10.1,3.7,15.6,3.6c1.4-3.3-1.3-5.3-1.6-7.9L147.5,247.9z M158.4,24.1l0.7,0.6
		l-0.6-0.8c0.1-3-2.1-5.5-5.1-5.8c-3.2-0.5-5.1,1.3-5.6,4.6c-5.3-4.2-10.7-6.3-16.8-6.5c-0.6,1.6,0.4,2.5,0.7,3.6s1.3,2.2-0.1,3.3
		c-4.2-5.9-7-12.9-13.7-16.8c-6.2-3.7-10.9-2.8-15,3.1c-5.9,8.5-8,18.4-10.7,28.4H104c2.8-7,6.3-13.6,4.1-21.5
		c7.1-0.3,7.3,0,20.8,26.2c5.2-2,10.9-1.4,16.4-1.9C148.3,33.7,151.1,27.2,158.4,24.1z M176.5,96.9c-0.3-0.9-0.9-1.1-1.9-0.5
		l1.2,1.1c1,2.2,2.6,4.4,1,7.7c-4.9,3.5-11,4-17.1,3.3c-9.5-1.2-17.1-7-25.2-11.5c-15.3-8.6-27.4-20.5-35.1-36.5
		c-0.5-1-0.7-2.3-2.9-2.7c-1.3-0.5-0.9,2.6-2.7,2.5c-1.3-4.2,0.4-7.5,3.6-9.9c2.7-2,5.7-3.5,9-0.9c-0.4,1.8-3,1-3.1,3.3
		c9.6,13.6,23.1,22.3,38.4,28.6c6,2.7,12.9,2.7,18.9,0.1c3.8-1.6,7.6-3.1,11.3-4.6c1.1,2.2-2.2,2.1-1.2,4.1
		c4.8-0.7,9.8-0.3,14.5-2.8c5-2.7,7.5-9.2,5.3-15.3c-1.7-4.9-6.5-7-12.3-5.5c-2.8,0.7-5.4,2.1-7.6,4c-3.5-0.1-6.4-1.6-9.4-2.5
		c-5.2-1.5-10.6-3.6-14.8,1.4c-4,4.7-1.9,9.5,0.8,14.4c-3.1-3.8-7.6-3.9-11.5-5.4c-1.9-0.7-4.3-0.9-5.3-3.1l10,1.5
		c0.2-3.6,0.2-6.9,2.5-9.6c4.6-5.3,10.2-4.5,16.1-3.3c3.9,0.8,7.6,2.8,12.3,2c-2.7-4-6.6-4.4-10.1-5.7c-1.8-0.7-4.3-0.2-5.3-2.1
		c-1.5-2.7-4-3.3-6.5-3.9c-7.1-1.8-14.1-1.3-20.5-0.2c-6.1-2.2-11.6-3.3-17.5-2.5c0,2.6,2.6,3.7,2.2,5.9c-2.5-0.3-3.6-2.7-5.4-4
		c-6.5-4.5-14.6-4.9-20-0.6c-5.3,4.1-6.5,10.9-3.2,18.6c2.2,4.9,5.2,9.4,8.8,13.3c13.6,15.1,29.9,26.9,47.7,36.6
		c9.7,5.3,19.2,8.7,30.1,3.7c3.6-1.7,8-2.3,9.1-6.8C181.4,104.4,180.6,100.1,176.5,96.9L176.5,96.9z M104.6,193.1
		c12.3-9.8,16.1-23.6,15.5-38.2c-0.6-16.6-5.9-32.2-13.6-47c-3.3-6.3-5.9-13-6.4-20.7c-7.7-7.5-15.5-15.3-19.4-26.8
		c-4.4,8.6-5.8,25.4-3,31.4c2,0.3,3.4-1,5-1.8s3.1-1.4,5-0.3c-17.5,10-28.2,25.7-37.9,42.6c10,16.4,24.7,27,41.5,36.5
		c-5.2,0-4.4,4.1-5.5,6.9c-2.3-2.5-0.7-5.3-1.7-8c-1.4-0.4-2-2.7-4.4-2.2c-1.3,6.5,0.8,11.7,5.3,16.4c0.8,0.1,1.6,0.2,2.5,0.2
		c7.9,0,11.2-2.2,14.2-9.3c2.3-5.7,1.3-10-4.1-15.1c-3.6-3.5-6.8-7.4-9.4-11.6c-5.5-8.3-10.4-17.3-22.8-18.6
		c5.1-2.8,8.8-0.1,12.5,0.4c10.3-4.8,19-11.3,24.9-21.5c-2.2,7.2-4.3,14.5-6.7,22.3l-2.2-5.2c-2.2,0.8-4.2,2.1-5.7,3.9
		c2.6,5.5,5.5,10.9,6.2,17.1c0.4,4.2,2.5,8,5.7,10.7c9,7.5,7.1,17.9,1.2,25.9c-4.6,6.2-16.8,6.2-21.2,0c-1.8-2.9-3.5-5.8-5-8.8
		c-7.9,0-14.4-4.2-21.2-7.5c-10.6-5.1-21.7-7.2-33.4-4.8c-8.7,1.8-15.5,8-16.7,15.4c1.5,0.1,2.3-1,3.5-1.7c7-4.1,15.2-6,23.4-5.2
		c13.9,1.4,24.5,8.5,34.1,18c4,4,8.2,8.1,13.3,10.4c2.2-1.1,1.9-3.7,4.2-4.5c-1.3,6.2-2,12.5-1.9,18.8c0.2,5.8,0.3,11.7,0,17.5
		c-0.3,5.9-0.8,11.7-7.2,15.2c-3.4,1.8-5.2,5.8-4.5,10.3c1.5-0.8,1.1-3.2,3.8-2.8c-1.2,3.6-1.4,7.4-0.6,11.1
		c2.2,1.4,4.8,1.7,7.2,0.9c1.3-5.2,1.4-10.9,7-14c-1.8,3.9-3.6,7.8-1.8,12.6c5.4-1.1,10.2-3,13.8-7.3c1.2-1.4,1.7-3.3,1.3-5.2
		c-2.6-10.8-1-21.4,1.8-31.9C103.1,209.8,105.9,201.7,104.6,193.1L104.6,193.1z M157.8,172.7c-10.9-6.6-26.1-7.4-36-2
		c-1.1,6.2-4.3,11.8-7.6,17.6c10.9,8.1,22.3,12.3,35.6,9.4C153.8,189.8,156.5,181.4,157.8,172.7L157.8,172.7z M123,165.3
		c12.5-3.7,24.1-2.5,35.7,2.5c1.2-9.5,2.1-18.5,1.4-27.5c-10.8-5.1-28.8-4.2-38.1,1.9C123.4,149.9,123.7,157.6,123,165.3L123,165.3z
		 M176.7,127.4c-7,5.2-12.7,10.3-12.7,20.2c0,6.6,0.5,13.3-0.9,20.1c12.6-11,25-21.9,30-38.6c-5.1-4.4-7.7-10.1-13.3-13.2
		c-5.1,3.6-11.5,3.2-16.6,6.2c-0.8,1.4-0.9,3.2-0.1,4.7c1.7,0.9,3.4,2.3,6,2.3C171.2,128,173.4,126.1,176.7,127.4L176.7,127.4z
		 M158.3,122.4c-7.5-1.9-14.7-4.9-21.2-9c-8.4-5.1-15.7-1.6-23.7,1.4c3.4,7.6,5.4,15.1,7.7,22.6c6.1-2.6,12.7-4.1,19.3-4.5
		c6.6-0.2,13.1,0.5,19.5,2.1C159.3,130.6,159.8,126.6,158.3,122.4L158.3,122.4z M106.9,196.4c1.5,5.3-0.2,10.9-0.6,16.2
		c18.3,13.2,29.8,8.5,40-9.6c-12.9,0-24.5-3.3-34.9-11.9L106.9,196.4z M76,61.6c4.9-7.8,3.1-17.7,11.4-22.9
		c-8.6,2.8-16.3,7.8-22.4,14.4C68.5,56.4,72.9,57.6,76,61.6z M77.3,200.8l-8.1-5.6c-5,7.8-1.5,17.2,8.1,21.7V200.8z M73.4,88.9
		c0.2-7.4-0.4-13.8,0.6-20.4c-5.8,4-11.4,7.8-13.9,14.9C64.1,86.3,68.8,86.3,73.4,88.9z M54.3,181.6c-7.2-5.2-14.8-9.3-24-9.3
		c8.4,4.3,14.5,11.3,21.9,18C52.1,186.7,53.4,184.3,54.3,181.6L54.3,181.6z M104.7,217.1c-0.8,4.3-2.5,7.7-2.1,11.8
		c7.1,0.3,14.2-1.3,20.6-4.5C116.5,223.4,110.1,220.9,104.7,217.1L104.7,217.1z M161.7,172.7c-0.6,4.2-2.5,7.9-2.4,12.1h6
		c5.5-4.9,6-10.7,4.4-17.2c-2.8,0-3.7,2-5,3.5c0.9,2.3,1.1,4.9,0.5,7.3C163,177.1,163.7,174.6,161.7,172.7L161.7,172.7z M66,192.3
		c-2.8-2.9-5-5.7-8.3-7.3c-2.7,6.3-1.3,11.6,4.4,16.6C62.9,198.4,63.7,195.3,66,192.3z M74.3,168.7c-1.5-6.7-4.6-10.7-9.4-12.4
		c-2.3,2.8-1,6.3-2.4,9.1C66.3,167.9,70.1,168,74.3,168.7z M21.9,147.8c-1.1,3.3,0.4,5.6,0.9,7.7h9.4
		C29.2,151.9,26.4,149.2,21.9,147.8L21.9,147.8z M74.2,93.8c-7,1.9-13.5,9.5-12.6,14.7C65.6,103,70.3,98.8,74.2,93.8z M42.7,157.4
		l8.2,2.2c-2.3-3.4-2.8-7.9-7-9.6C42.5,152.2,42,154.9,42.7,157.4z M124.9,40.2c-1.7-4-2.5-7.4-6-11.4c1.2,5-0.3,7.8-3.3,10.3
		C118.6,40.2,121.4,40.1,124.9,40.2L124.9,40.2z M161.4,43.4c1.4-5.8,0.3-11.2-1.7-16.6C158,32.6,159.7,38,161.4,43.4L161.4,43.4z
		 M81.7,130.6c3.6,3.5,5.4,8,8.9,12.8c-1-6.1-3.5-10.2-5.8-14.5C83.6,129,82.4,129.6,81.7,130.6L81.7,130.6z M157.4,42.7
		c-0.5-4.4-1-8.8-1.5-13.3c-1.6,0.3-2,1.4-2.7,2.6c3,3.4,3.5,6.9-0.9,9.9C154,42,155.4,43.3,157.4,42.7L157.4,42.7z M153.8,95.4
		c3.8-2.7,4.4-5.7,3.4-9.6c-1.3,0.2-2.6,0.1-3.4,1.1V95.4z M178.8,83.4c1.1,2.3,0.1,4.8,2,6.7c2.9-3.4,3.7-6.3,2-7.6L178.8,83.4z
		 M113.3,39c-2.9-1.9-2.7-5.2-3.3-8.7l-3,8.7H113.3z"/>
	<polygon class="st0" points="897.2,96 897.1,96.1 897,95.8 	"/>
	<path class="st3" d="M104.6,193.1c1.3,8.7-1.4,16.7-3.6,24.8c-2.7,10.5-4.4,21.1-1.8,31.9c0.4,1.8,0,3.7-1.3,5.2
		c-3.6,4.3-8.3,6.2-13.8,7.3c-1.8-4.8,0-8.7,1.8-12.6c-5.5,3.1-5.7,8.7-7,14c-2.4,0.8-5.1,0.5-7.2-0.9c-0.8-3.7-0.6-7.5,0.6-11.1
		c-2.7-0.4-2.3,2-3.8,2.8c-0.7-4.5,1.1-8.5,4.5-10.3c6.5-3.5,6.9-9.3,7.2-15.2c0.3-5.8,0.2-11.7,0-17.5c0-6.3,0.6-12.6,1.9-18.8
		c-2.4,0.8-2.1,3.3-4.2,4.5c-5.1-2.3-9.2-6.4-13.3-10.4c-9.6-9.5-20.2-16.7-34.1-18c-8.1-0.8-16.3,1-23.4,5.2
		c-1.1,0.6-2,1.7-3.5,1.7c1.1-7.4,7.9-13.7,16.6-15.5c11.7-2.5,22.8-0.3,33.4,4.8c6.9,3.3,13.4,7.5,21.2,7.5c1.5,3,3.2,6,5,8.8
		c4.4,6.3,16.6,6.2,21.2,0c5.9-7.9,7.8-18.4-1.2-25.9c-3.2-2.7-5.3-6.5-5.7-10.7c-0.7-6.2-3.6-11.6-6.2-17.1
		c1.5-1.8,3.5-3.1,5.7-3.9l2.2,5.2c2.3-7.8,4.5-15.1,6.7-22.3c-5.9,10.2-14.6,16.7-24.9,21.5c-3.8-0.5-7.4-3.2-12.5-0.4
		c12.4,1.3,17.3,10.3,22.8,18.6c2.7,4.2,5.9,8.1,9.4,11.6c5.4,5.1,6.4,9.4,4.1,15.1c-2.9,7.1-6.3,9.3-14.2,9.3
		c-0.8,0-1.6-0.1-2.5-0.2c-4.5-4.7-6.7-9.9-5.3-16.4c2.4-0.5,3.1,1.8,4.4,2.2c1.1,2.7-0.6,5.4,1.7,8c1.1-2.9,0.3-6.9,5.5-6.9
		c-16.8-9.5-31.4-20.1-41.5-36.5C59.3,115.6,70,100,87.4,89.9c-1.9-1-3.4-0.4-5,0.3s-3.1,2-5,1.8c-2.8-6-1.4-22.7,3-31.4
		c3.9,11.5,11.7,19.3,19.4,26.8c0.5,7.7,3.1,14.3,6.4,20.7c7.7,14.8,13,30.4,13.6,47C120.6,169.5,116.9,183.2,104.6,193.1z
		 M73.4,249c0.1-0.1,0.3-0.2,0.2-0.1L73.4,249c-0.2,0.2-0.3,0.3-0.1,0.1C73.2,249.4,73.3,249.2,73.4,249L73.4,249z"/>
	<path class="st0" d="M130.3,64.1c1.2,2.3,3.1,4.2,5.4,5.4c3.9,1.5,8.4,1.7,11.5,5.4c-2.7-4.8-4.8-9.7-0.8-14.4
		c4.3-5,9.6-2.9,14.8-1.4c3,0.9,5.9,2.3,9.4,2.5c2.2-1.9,4.8-3.3,7.6-4c5.8-1.5,10.6,0.6,12.3,5.5c2.2,6.2-0.3,12.7-5.3,15.3
		c-4.6,2.5-9.6,2.1-14.5,2.8c-1-2,2.3-1.9,1.2-4.1c-3.7,1.5-7.5,3-11.3,4.6c-6,2.6-12.9,2.6-18.9-0.1c-15.3-6.4-28.8-15.1-38.4-28.6
		c0.1-2.3,2.8-1.5,3.1-3.3c-3.3-2.6-6.3-1.1-9,0.9c-3.3,2.4-4.9,5.7-3.6,9.9c1.9,0.2,1.4-3,2.7-2.5c2.2,0.4,2.4,1.7,2.9,2.7
		c7.7,16,19.8,27.9,35.1,36.5c8.1,4.5,15.7,10.4,25.2,11.5c6.1,0.7,12.2,0.2,17.1-3.3c1.6-3.3,0-5.4-1-7.7c0.3-0.2,0.5-0.4,0.7-0.6
		c4,3.2,4.9,7.5,3.8,12.1c-1.1,4.6-5.4,5.2-9.1,6.8c-10.9,5-20.5,1.6-30.1-3.7c-17.8-9.8-34-21.5-47.7-36.6
		c-3.6-3.9-6.6-8.4-8.8-13.3c-3.3-7.7-2.3-15,2.9-19.1c5.4-4.3,14.1-3.9,20.5,0.6c1.8,1.3,4.4,2.9,6.9,3.2
		C118,48.6,130.3,64.1,130.3,64.1z M156.8,73.3c-2.3-3,0.1-4.7,0.7-6.9c-1-1.3-1.8-2.5-3.7-1.7c-1.4,0.6-2.3,2.1-2.1,3.6
		C151.9,70.9,153.2,72.5,156.8,73.3L156.8,73.3z M182.4,64.3c0.3,2.1,1.8,3.7,0.7,5.8c3.3-0.4,4.4-2.1,3.7-4.6
		C186.3,63.5,185,62.5,182.4,64.3L182.4,64.3z"/>
	<path class="st3" d="M158.4,24.1c-7.3,3-10.1,9.6-12.9,16.6c-5.5,0.5-11.2-0.2-16.4,1.9c-13.5-26.2-13.7-26.5-20.8-26.2
		c2.3,7.9-1.3,14.5-4.1,21.5H92.4c2.6-10.1,4.7-20,10.6-28.5c4.1-5.9,8.8-6.8,15-3.1c6.6,3.9,9.5,10.9,13.7,16.8
		c1.4-1.1,0.4-2.2,0.1-3.3c-0.3-1.1-1.3-2-0.7-3.6c6.1,0.2,11.5,2.3,16.8,6.5c0.6-3.3,2.4-5.1,5.6-4.6c3,0.3,5.2,2.9,5.1,5.8
		L158.4,24.1z"/>
	<path class="st0" d="M157.8,172.7c-1.3,8.7-4,17.2-8,25c-13.3,2.9-24.7-1.2-35.6-9.4c3.3-5.8,6.5-11.4,7.6-17.6
		C131.7,165.3,146.9,166.1,157.8,172.7z"/>
	<path class="st0" d="M123,165.3c0.7-7.7,0.4-15.5-1-23.1c9.3-6.2,27.3-7.1,38.1-1.9c0.6,9-0.2,18-1.4,27.5
		C147.1,162.8,135.5,161.7,123,165.3z"/>
	<path class="st3" d="M176.7,127.4c-3.3-1.3-5.5,0.6-7.7,1.6c-2.6,0.1-4.2-1.4-6-2.3c-0.8-1.5-0.7-3.2,0.1-4.7
		c5.1-3,11.6-2.6,16.6-6.2c5.6,3.1,8.1,8.8,13.3,13.2c-4.9,16.7-17.3,27.6-30,38.6c1.4-6.7,0.9-13.5,0.9-20.1
		C164,137.7,169.7,132.6,176.7,127.4z"/>
	<path class="st3" d="M147.3,248.1c0.3,2.5,3,4.5,1.6,7.9c-5.5,0.2-10.8-0.7-15.6-3.6c-2.5-1.4-4.1-4.1-4.1-7c0-6.6,0-13.3,0-20
		c7.1-4.8,13.4-10,19-17.8c0,8,0.7,16,2,24c0.6,4.3,3.1,8.2,6.8,10.4c4.4,2.7,5.1,6.9,5.3,12.6c-2.9-3.5-3.5-7.6-7.3-9.4
		c-0.8,2.2,1,3.1,1.5,4.4c0.6,1.6,1,3.1,0.4,4.8c-1.2,1.1-2.5,0.6-3.8,0.6c-1.8-2.6-1.9-6.4-5.8-7c-0.2-0.1-0.3-0.3-0.7-0.6
		L147.3,248.1z"/>
	<path class="st0" d="M158.3,122.4c1.4,4.2,1,8.2,1.6,12.7c-6.4-1.6-12.9-2.2-19.5-2.1c-6.6,0.3-13.2,1.9-19.3,4.5
		c-2.3-7.6-4.3-15-7.7-22.6c8-3,15.3-6.6,23.7-1.4C143.7,117.5,150.8,120.5,158.3,122.4z"/>
	<path class="st3" d="M110.8,42.3c5.9-0.7,12,0.4,18.1,2.6c6.4-1.1,13.5-1.6,20.6,0.2c2.6,0.6,5.1,1.2,6.6,3.9
		c1.1,1.9,3.6,1.4,5.4,2.1c3.5,1.3,7.4,1.7,10.2,5.8c-4.7,0.8-8.4-1.2-12.3-2c-5.9-1.2-11.6-2-16.1,3.3c-2.4,2.8-2.4,6.1-2.5,9.7
		c0,0-12.5-0.1-19.6-9.2C117,53.5,113.6,48.1,110.8,42.3z"/>
	<path class="st0" d="M106.9,196.4l4.5-5.4c10.4,8.6,22,11.9,34.9,11.9c-10.2,18.1-21.7,22.9-40,9.6
		C106.7,207.3,108.4,201.8,106.9,196.4z"/>
	<path class="st1" d="M146.4,88c0.2-2.5,1.8-2.3,3.3-1.8c3.8,3.1-0.6,8.6,3.9,11.4c5.7-0.6,6.3-6.2,9.6-9.8
		c3.9,5.1,10.3,8,11.7,15.5c-6.9,2.9-13.9,4.1-20.4,1c-14.3-6.8-28.4-14-39.3-26c-1.1-1.2-2.7-2-2.6-4.6c10.6,2,20.4,5.4,29.1,11.8
		c-1.8,0.7-3.3-0.9-5.1-0.8c-0.8-1.3-2.3-1.9-3.8-1.6c0.3,0.6,0.5,1.2,0.8,1.3c0.9,0.3,1.8,0.5,2.7,0.6c2.8,3.8,6.7,6.2,11.5,8.9
		c-0.7-4.7-5.6-4.8-6-8.3L146.4,88"/>
	<path class="st3" d="M76,61.6c-3.1-4-7.4-5.2-11-8.6c6.2-6.6,13.9-11.5,22.4-14.4C79,43.9,80.9,53.8,76,61.6z"/>
	<path class="st0" d="M104.5,90.9c6.7,5.6,13.7,10.9,21,15.7c-4.7,1.8-9.4,2-13.6,4.6C109.1,104.3,104.2,98.6,104.5,90.9L104.5,90.9
		z"/>
	<path class="st0" d="M77.3,200.8v16.1c-9.6-4.4-13.1-13.9-8.1-21.7L77.3,200.8z"/>
	<path class="st3" d="M73.4,88.9c-4.5-2.7-9.3-2.6-13.3-5.5c2.5-7.2,8.1-11,13.9-14.9C73,75.1,73.5,81.6,73.4,88.9z"/>
	<path class="st0" d="M54.3,181.6c-0.8,2.7-2.2,5.1-2.1,8.7c-7.4-6.6-13.5-13.7-21.9-18C39.5,172.3,47,176.5,54.3,181.6z"/>
	<path class="st0" d="M104.7,217.1c5.5,3.9,11.8,6.4,18.5,7.3c-6.4,3.2-13.4,4.8-20.6,4.5C102.2,224.8,103.8,221.3,104.7,217.1z"/>
	<path class="st3" d="M161.7,172.7c2,1.9,1.3,4.4,3.5,5.7c0.6-2.4,0.4-5-0.5-7.3c1.3-1.5,2.2-3.5,5-3.5c1.6,6.4,1.1,12.3-4.4,17.2
		h-6C159.2,180.6,161.1,176.9,161.7,172.7z"/>
	<path class="st0" d="M66,192.3c-2.2,2.9-3.1,6-3.9,9.3c-5.7-5-7.1-10.3-4.4-16.6C61,186.7,63.2,189.4,66,192.3z"/>
	<path class="st3" d="M74.3,168.7c-4.2-0.7-8-0.9-11.8-3.3c1.4-2.8,0.1-6.4,2.4-9.1C69.7,158,72.8,162,74.3,168.7z"/>
	<path class="st3" d="M21.9,147.8c4.4,1.4,7.2,4.1,10.3,7.7h-9.4C22.3,153.4,20.9,151.1,21.9,147.8z"/>
	<path class="st3" d="M74.2,93.8c-3.9,5-8.6,9.2-12.6,14.7C60.7,103.3,67.2,95.7,74.2,93.8z"/>
	<path class="st3" d="M42.7,157.4c-0.7-2.5-0.2-5.2,1.2-7.4c4.2,1.7,4.8,6.2,7,9.6L42.7,157.4z"/>
	<path class="st4" d="M124.9,40.2c-3.5-0.2-6.3-0.1-9.3-1.1c3.1-2.4,4.6-5.3,3.3-10.3C122.4,32.8,123.2,36.3,124.9,40.2z"/>
	<path class="st3" d="M161.4,43.4c-1.8-5.4-3.5-10.9-1.7-16.6C161.8,32.2,162.8,37.7,161.4,43.4z"/>
	<path class="st4" d="M157.4,42.7c-2.1,0.7-3.4-0.7-5.2-0.9c4.4-3,3.9-6.4,0.9-9.9c0.7-1.2,1.1-2.3,2.7-2.6
		C156.4,33.8,156.9,38.3,157.4,42.7z"/>
	<path class="st4" d="M153.8,95.4V87c0.8-1,2.1-0.9,3.4-1.1C158.2,89.7,157.6,92.7,153.8,95.4z"/>
	<path class="st4" d="M116.8,26.7c-1.9-1.3-3.8,0.7-6,0.1c0.5-2.1,0.9-4.3,1.5-7c2.4,1.9,4.4,3.5,5.4,6L116.8,26.7z"/>
	<path class="st4" d="M178.8,83.4l4-1c1.7,1.3,0.9,4.2-2,7.6C178.9,88.2,180,85.7,178.8,83.4z"/>
	<path class="st4" d="M113.3,39H107l3-8.7C110.7,33.8,110.4,37.1,113.3,39z"/>
	<path class="st4" d="M117.7,25.8c0.8,0.5,0.8,1.1,0,3.5l-0.8-2.5C117.1,26.4,117.4,26.1,117.7,25.8z"/>
	<path class="st3" d="M158.5,23.9l0.6,0.8c-0.4-0.3-0.6-0.4-0.7-0.6L158.5,23.9z"/>
	<path class="st1" d="M855.8,165.8c-5.2,5.6-11.4,8.7-19.3,7.5c-4.4-0.6-7.2-2.9-8.2-7.3c-0.1-3.3,2-6.2,5.2-7.2
		c8.1-2.9,16.2-5.8,24.6-8.8C859.1,155.9,858.7,161,855.8,165.8z"/>
	<path class="st1" d="M1038.4,145c0.1,4.8-0.8,9.4-2.6,13.8c-2.6,6.3-7,10-14,10.2c-6.8,0.3-12.2-3.1-14.8-9.7
		c-3.7-9.2-3.7-19.5-0.3-28.8c2.2-6.4,8.3-10.6,15-10.3c7,0.4,11.9,4.2,14.4,11.1C1037.8,135.8,1038.3,140.4,1038.4,145z
		 M1021.5,137c-6.2-0.1-10.9,5.3-11.1,12.8c-0.2,7.4,4.3,13.2,10.4,13.3c6.5,0.2,11.5-5.5,11.4-12.9
		C1032.1,142.6,1027.7,137.1,1021.5,137L1021.5,137z"/>
	<path class="st1" d="M445.7,145.5c0.1,4.5-0.2,9.8-2.7,14.7c-3,5.8-7.7,9.1-14.4,8.8s-11.4-3.7-13.7-9.8
		c-3.6-9.2-3.6-19.5-0.2-28.8c2.3-6.4,7.3-9.8,14-10.2c6.7-0.4,11.9,3.3,14.8,9.8C445.7,134.7,445.7,139.7,445.7,145.5z M429,163.3
		c6.3,0.1,11.3-5.7,11.2-13.2c-0.1-7.5-4.6-13.1-10.8-13.1c-6.3,0-10.8,5.4-10.9,13C418.3,157.5,422.8,163.2,429,163.3z"/>
	<path class="st2" d="M156.7,73.2c-3.5-0.8-4.9-2.4-5.1-5c-0.2-1.5,0.7-3,2.1-3.6c1.8-0.9,2.7,0.4,3.7,1.7
		C156.7,68.4,154.4,70.2,156.7,73.2z"/>
	<path class="st2" d="M182.3,64.2c2.6-1.8,3.9-0.8,4.4,1.3c0.6,2.5-0.4,4.1-3.7,4.6C184.1,67.9,182.6,66.3,182.3,64.2z"/>
	<path class="st0" d="M132.7,83.4c0.3,0.6,0.5,1.2,0.8,1.3l1.9,1.8c2.8,3.8,7.5,5.1,12.3,7.8c-0.7-4.7-3.6-5.5-6-8.3
		C141.7,85.8,136.5,82.1,132.7,83.4z"/>
</g>
</svg>
