<?xml version="1.0" encoding="utf-8"?>
<!-- Generator: Adobe Illustrator 23.0.1, SVG Export Plug-In . SVG Version: 6.00 Build 0)  -->
<svg version="1.1" id="Layer_1" xmlns="http://www.w3.org/2000/svg" xmlns:xlink="http://www.w3.org/1999/xlink" x="0px" y="0px"
	 viewBox="0 0 438 218.9" style="enable-background:new 0 0 438 218.9;" xml:space="preserve">
<path d="M73.1,210.9l5.1,6.1v1.9h-6.8l-3.1-3.8c-3.9,0.5-7.4,1.2-10.8,1.1c-10.3-0.2-17.8-7.7-18.5-18c-0.4-3.7,0-7.5,1.3-11
	c3.3-8.8,11.6-13.4,21.8-12.1c8.7,1.1,15.6,8.1,16.5,16.8C79.5,199,78.2,205.4,73.1,210.9z M48.1,204c2.2,4.7,6.3,6.7,11.5,6.4
	c4.7,0,8.8-2.9,10.5-7.2c1.5-3.6,1.9-7.5,1.2-11.3c-1.2-6.6-5.9-10.9-12.2-11s-11,3.6-12.5,10.2c-0.3,1.3-0.4,2.7-0.5,4
	C46.1,195.1,46.3,202,48.1,204z M175.9,176h18.5l1.7,0.4c4.6,1.3,7.7,4.8,8.1,9.2c0.4,4.4-1.5,10-5.9,12.3l-3.4,1.4l1,1.5
	c3.2,3.9,6.3,7.8,9.4,11.8c0.5,0.9,0.9,1.9,1.2,2.9h-7.2l-12-15.5h-4.5v15.5h-6.9L175.9,176z M182.8,193.8c2.7,0,5.1,0.2,7.5,0
	c1.5-0.1,3-0.5,4.4-1.2c2.2-1,2.7-3,2.7-5.3c0.1-2-1.1-3.8-2.9-4.6c-3.8-1.6-7.7-1-11.7-1V193.8z M134.9,215.5h-6.7
	c0.1-0.9,0.3-1.8,0.5-2.7c4.4-12.2,9-24.3,13.5-36.4l0.3-0.6h10.3c2.1,3.2,14.3,37.9,14,39.7h-6.7c-1.3-3.6-2.6-7.4-4-11.2h-17.3
	L134.9,215.5z M154.1,198.1c-2-5.6-3.8-11-5.6-16.5l-1.8,0.2l-5.7,16.3H154.1z M360.6,215.5h-7.5l-3.9-11.2h-17.3
	c-1.4,3.7-2.7,7.4-4,11.2h-6.6c0-0.8,0.1-1.6,0.3-2.4l13.8-37l0.3-0.4h10.4C350.9,188.9,355.9,201.9,360.6,215.5z M334.1,198.1h13
	l-5.6-16.4h-1.7L334.1,198.1z M114.3,190.5c0,4.1,0.1,8.2-0.3,12.3c-0.3,4.4-3.9,7.8-8.3,8c-4.8,0.3-8.1-2.3-9.1-7
	c-0.3-1.5-0.4-3.1-0.4-4.6v-21.4c0-0.7,0-1.3-0.1-2h-7v3.1c0.1,8.2,0,16.5,0.4,24.8s5.1,11.9,12.4,12.5c2.2,0.3,4.5,0.3,6.7,0
	c7.1-0.6,11.9-5,12.3-12.1c0.6-9.3,0.3-18.6,0.4-27.9l-0.2-0.5h-6.8C114.3,180.8,114.4,185.7,114.3,190.5z M4.4,213
	c5.6,4.5,16.1,4.4,21.7,0.1s7.1-14.9-2.3-18.7l-3.4-1.3c-2.9-1-5.8-1.9-8.7-3.1c-2-0.5-3.3-2.5-3-4.6c0.2-2.1,1.7-3.8,3.8-4.3
	c4.5-1.3,7.8,0.2,10.5,4.9l6.4-0.5c-0.7-4.5-2.8-7.7-6.7-9.3c-5.1-2.3-10.9-2-15.8,0.6c-5.2,2.5-7.3,8.8-4.7,13.9
	c0.9,1.9,2.4,3.4,4.2,4.5c2,1.1,4,1.9,6.2,2.5c2.1,0.8,4.4,1.3,6.6,2c2.2,0.6,3.8,2.6,3.9,4.9c0,2.6-1.8,4.9-4.3,5.5
	c-5.4,1.7-9.8-0.4-12.2-5.9L0,204.7C0.6,208.2,1.9,211,4.4,213z M272.7,176.2c-5.1-2.3-11-2.1-15.9,0.6c-5.1,2.6-7.1,8.9-4.6,14
	c0.9,1.8,2.3,3.3,4.1,4.3c1.9,1.1,4,2,6.1,2.6c2.2,0.8,4.5,1.3,6.7,2s4.1,2.6,4,5c-0.1,2.6-1.9,4.8-4.4,5.4
	c-5.4,1.6-9.3-0.3-12.2-5.9l-2.8,0.2l-3.6,0.4c0.2,3.3,1.8,6.3,4.4,8.3c5.6,4.4,15.9,4.3,21.5,0s7.2-14.9-2.1-18.7l-3.6-1.3
	c-2.9-1.1-5.9-2-8.7-3.1c-1.9-0.6-3.1-2.5-2.9-4.5s1.6-3.8,3.6-4.3c4.5-1.5,8.1,0.1,10.6,4.8l6.5-0.5
	C278.7,181.1,276.6,177.9,272.7,176.2L272.7,176.2z M215.1,215.4h26v-6H222v-11.2h17.5v-6H222v-10.5h18.7v-6h-25.6L215.1,215.4z
	 M437.5,181.7v-5.9h-25.6v39.7H438v-6.1h-19.1v-11.2h17.3v-6h-17.4v-10.5L437.5,181.7L437.5,181.7z M399.7,181.6
	c-4.8-6.5-14.8-8.7-22.9-5.2s-11.8,10.5-11.6,20c0.3,13.7,11.2,22.4,24.6,19.4c6-1.3,10.1-4.9,12.6-10.8l-6.9-1.1l-0.8,1.3
	c-4.9,7.2-15.7,7-19.9-0.6c-3.4-5.7-3.3-12.8,0.2-18.4c4.4-7.3,15-7.1,19.5,0.1l0.7,1.1l7.2-1.4
	C401.4,184.4,400.7,182.9,399.7,181.6L399.7,181.6z M297.4,200.1v15.3h-6.9v-39.8h5.6c3.7,0.1,7.4,0,11.2,0.2
	c7.7,0.3,12.1,4.7,12.1,12c0,7.3-4.2,11.7-11.9,12.2C304.2,200.3,300.9,200.1,297.4,200.1z M297.5,194.2c2.5,0,4.9,0.1,7.2,0
	c1,0,1.9-0.1,2.9-0.3c2.9-0.4,5-2.9,4.9-5.8c0-3.2-1.6-5.5-4.7-6s-6.8-0.4-10.3-0.6V194.2z"/>
<path d="M187.9,0l8.6,8.6l-2.5,2.6c-15.3,15.5-30.7,30.8-46.2,46.2c-5.8,5.9-7.8,12.9-5.2,20.7c1.9,7.6,8.3,13.2,16,14.3
	c7.4,1.5,13.6-1.2,18.8-6.5l53.2-53.4c0.9-0.9,1.6-1.9,2.3-3l9.4,9.3l-19.2,19.2l-38,38c-13,12.8-34,12.5-46.7-0.5
	c-4-4.1-6.9-9.2-8.3-14.8c-2.9-11.4-0.7-22,7.4-30.4C154,33.2,171.2,16.7,187.9,0z M301.2,93.3c7.4-7.8,9.2-18.1,6.7-28.5
	S297.3,44,285,40.6c-12.2-3.4-23.3-0.9-32.3,8.1l-55.6,55.5c-0.5,0.5-0.9,1.2-0.9,1.1l8.8,9.3l2.3-2.9l53.1-53
	c5.2-5.2,11.4-7.9,18.7-6.5c7.7,1,14.1,6.5,16.1,14.1c2.5,7.4,0.4,15.5-5.3,20.8l-46.2,46.2l-2.5,2.6l8.1,8.3
	C267,127,284.3,110.6,301.2,93.3z M270.8,67.8c-0.5,0.8-1,1.4-1.6,2L215,124.1c-8.9,8.8-21.1,8.8-29.8,0.2c-1.5-1.6-2.8-3.3-4-5.2
	l-4.8,5.8c-1.5,1.4-3,2.6-4.7,3.8c16.3,19.6,39.9,18,54.5,2.3c14.6-15.7,34.1-34.5,51.2-51.4l2.1-2.6L270.8,67.8z M214.5,11
	c-13.9,13.6-27.4,27.4-41.1,41.1l-15.9,15.6l9.2,8.8l14.8-14.6L223,20.2c8.8-8.6,21.1-8.6,29.8,0c1.2,1.3,2.3,3,3.6,4.4l9-9.2
	C252.7-1.6,229.4-3.8,214.5,11z"/>
</svg>
